HIERARCHY
ROOT Hips
{
  OFFSET -35.4901 99.2528 17.4586
  CHANNELS 6 Xposition Yposition Zposition Zrotation Xrotation Yrotation
  JOINT LeftUpLeg
  {
    OFFSET 8.64259 1.95398 -2.38835
    CHANNELS 3 Zrotation Xrotation Yrotation
    JOINT LeftLeg
    {
      OFFSET 43.7702 0 0
      CHANNELS 3 Zrotation Xrotation Yrotation
      JOINT LeftFoot
      {
        OFFSET 40.6238 0 0
        CHANNELS 3 Zrotation Xrotation Yrotation
        JOINT LeftToeBase
        {
          OFFSET 12.7242 0 0
          CHANNELS 3 Zrotation Xrotation Yrotation
          End Site
          {
            OFFSET 0 0 0
          }
        }
      }
    }
  }
  JOINT RightUpLeg
  {
    OFFSET -8.2249 1.95398 -2.59336
    CHANNELS 3 Zrotation Xrotation Yrotation
    JOINT RightLeg
    {
      OFFSET 43.5653 0 0
      CHANNELS 3 Zrotation Xrotation Yrotation
      JOINT RightFoot
      {
        OFFSET 40.6238 0 0
        CHANNELS 3 Zrotation Xrotation Yrotation
        JOINT RightToeBase
        {
          OFFSET 12.7242 0 0
          CHANNELS 3 Zrotation Xrotation Yrotation
          End Site
          {
            OFFSET 0 0 0
          }
        }
      }
    }
  }
  JOINT Spine
  {
    OFFSET 0.165834 0.87714 6.61349
    CHANNELS 3 Zrotation Xrotation Yrotation
    JOINT Spine1
    {
      OFFSET 7.38963 1.71661e-005 0
      CHANNELS 3 Zrotation Xrotation Yrotation
      JOINT Spine2
      {
        OFFSET 11.9445 1.14441e-005 0
        CHANNELS 3 Zrotation Xrotation Yrotation
        JOINT Spine3
        {
          OFFSET 14.7254 4.19617e-005 0
          CHANNELS 3 Zrotation Xrotation Yrotation
          JOINT Spine4
          {
            OFFSET 10.9679 0 0
            CHANNELS 3 Zrotation Xrotation Yrotation
            JOINT RightShoulder
            {
              OFFSET 2.46616 -1.6653 3.69651
              CHANNELS 3 Zrotation Xrotation Yrotation
              JOINT RightArm
              {
                OFFSET 13.0012 0 0
                CHANNELS 3 Zrotation Xrotation Yrotation
                JOINT RightForeArm
                {
                  OFFSET 28.7848 1.52588e-005 0
                  CHANNELS 3 Zrotation Xrotation Yrotation
                  JOINT RightHand
                  {
                    OFFSET 26.5688 1.52588e-005 0
                    CHANNELS 3 Zrotation Xrotation Yrotation
                    End Site
                    {
                      OFFSET 0 0 0
                    }
                  }
                }
              }
            }
            JOINT LeftShoulder
            {
              OFFSET 2.38034 -1.29275 -3.7523
              CHANNELS 3 Zrotation Xrotation Yrotation
              JOINT LeftArm
              {
                OFFSET 16.3182 6.10351e-005 0
                CHANNELS 3 Zrotation Xrotation Yrotation
                JOINT LeftForeArm
                {
                  OFFSET 27.0901 0 0
                  CHANNELS 3 Zrotation Xrotation Yrotation
                  JOINT LeftHand
                  {
                    OFFSET 24.5451 1.52588e-005 0
                    CHANNELS 3 Zrotation Xrotation Yrotation
                    End Site
                    {
                      OFFSET 0 0 0
                    }
                  }
                }
              }
            }
            JOINT Neck
            {
              OFFSET 5.0226 -0.0266342 0
              CHANNELS 3 Zrotation Xrotation Yrotation
              JOINT Head
              {
                OFFSET 6.69364 2.86102e-005 0
                CHANNELS 3 Zrotation Xrotation Yrotation
                End Site
                {
                  OFFSET 0 0 0
                }
              }
            }
          }
        }
      }
    }
  }
}
MOTION
Frames:	18
Frame Time:	0.0416667
36.7567 89.8923 -273.087 64.7346 -73.445 66.3404 -168.512 -4.54483 99.1811 -34.4153 19.7356 -1.3117 77.2599 8.77181 5.24612 57.271 1.63775 -10.285 -178.306 50.7918 89.4824 -81.683 6.22494 -1.75417 88.5701 -13.5249 -0.853954 6.1531 -1.74266 5.03148 -2.40259 7.75276 -90.6518 11.359 -5.08474 -0.78824 -0.302047 -5.11447 -0.563112 -22.904 -4.61232 -2.28298 -2.89136 -4.61231 -2.28299 96.5047 -13.6606 -97.7886 61.1942 -15.9359 50.5042 -40.2359 -9.8815 -68.6403 -24.1935 2.25231 -22.6754 -85.4195 -29.1481 81.9293 -8.5777 -4.90796 -58.7055 65.4058 -24.478 -97.445 18.4994 -0.33752 -5.71082 31.9288 1.88332 -10.1507 -11.9703 5.48009 6.54077 
37.4639 91.2012 -265.147 67.1533 -77.4457 68.3295 -169.678 -15.1979 97.661 -24.2368 17.7082 -0.127459 62.8296 1.9109 5.68123 60.4452 1.70162 -11.9405 -177.195 49.7469 89.8028 -70.1814 2.75276 -2.51782 83.0653 -11.2532 -1.92984 9.2235 -1.47341 4.54519 -2.56381 7.91057 -90.7622 11.0393 -5.457 -0.992758 -0.620318 -5.49538 -0.750928 -23.2306 -4.90583 -2.59048 -3.21799 -4.90582 -2.59047 95.7846 -12.6112 -100.164 59.0933 -14.9133 53.402 -38.7008 -9.12315 -68.1249 -22.3235 2.10381 -23.0288 -85.225 -27.9844 82.0489 -9.42823 -9.6331 -55.503 60.5249 -24.8549 -100.7 24.0779 -0.220379 -4.86481 34.4692 4.22878 -8.83634 -16.2326 7.02803 7.31329 
37.918 92.6566 -256.449 58.301 -79.6992 61.8624 -170.815 -19.9021 98.0685 -20.1333 16.2179 2.46937 53.2296 -2.78688 3.23232 41.3033 1.98068 -7.22106 -178.325 48.1502 93.5634 -55.4238 -3.53005 -2.27619 76.088 -8.82423 -3.98978 12.7086 -2.04854 5.52651 -2.51152 7.87834 -91.2387 11.0756 -5.57377 -1.92687 -0.584484 -5.65316 -1.67904 -23.1822 -4.73686 -3.51548 -3.16954 -4.73685 -3.51547 95.3458 -11.0636 -102.066 57.7654 -13.14 54.9776 -36.1676 -8.35917 -68.4679 -22.1657 2.53988 -25.0066 -84.6325 -27.2693 83.078 -8.71754 -10.3719 -54.4076 59.865 -25.0722 -100.98 20.1803 -0.409485 -6.29842 36.4275 6.23233 -7.21109 -19.3909 8.07673 7.62006 
38.3542 93.5904 -248 51.7971 -80.6254 56.1645 -172.084 -21.2353 96.9213 -23.2915 17.9854 4.65048 53.6623 -2.90996 4.02332 23.7212 3.2872 -4.50352 -179.719 45.1492 94.9174 -40.7554 -11.1988 -1.55239 73.2045 -7.44973 -2.85987 11.7417 -2.42587 6.21355 -2.49656 7.80156 -91.5365 11.211 -5.68301 -2.50017 -0.449457 -5.78749 -2.24701 -23.038 -4.66908 -4.09436 -3.02538 -4.66908 -4.09436 94.4841 -10.2037 -104.965 56.5204 -10.1942 56.3724 -35.1273 -8.62128 -69.6792 -24.9778 3.32295 -26.4631 -84.6968 -27.6022 83.0216 -6.08846 -8.1714 -52.9616 48.728 -22.4225 -102.952 13.3885 -2.60341 -22.5028 35.5187 7.77939 -5.85219 -20.1988 8.78891 7.92858 
38.5618 93.6469 -240.113 47.5959 -81.4118 51.2043 -171.943 -21.2471 96.0213 -29.8359 19.9804 4.21796 60.0248 0.234685 5.89351 14.3643 5.79033 -6.33428 179.92 42.2017 95.0977 -28.9264 -17.8232 -1.29843 71.9604 -6.87631 -3.40627 11.408 -3.87309 8.82197 -2.38577 7.68355 -91.5016 11.4509 -5.44786 -2.43864 -0.210405 -5.54987 -2.19597 -22.7937 -4.4633 -3.96472 -2.78103 -4.46331 -3.96473 93.6864 -12.2877 -106.111 53.129 -7.66128 55.5908 -31.5103 -8.85188 -70.2492 -22.5526 2.91857 -26.0286 -84.7395 -27.5282 82.9191 -5.25253 -2.13954 -52.4713 50.5165 -21.4868 -99.492 15.3927 -2.67649 -20.8062 32.7525 7.67289 -7.02613 -18.3856 8.86866 10.1259 
38.5391 93.1461 -232.603 51.5989 -82.6061 53.6848 -170.993 -20.8727 95.7568 -37.6904 19.2938 2.95008 62.0028 1.42851 5.141 18.7181 6.23058 -7.84397 178.678 39.6121 95.4482 -24.3172 -19.852 -0.721556 71.0776 -6.39551 -4.50396 12.3145 -4.00163 9.10326 -2.28372 7.69249 -91.348 11.4431 -5.17309 -2.16032 -0.219005 -5.26314 -1.93007 -22.8008 -4.28477 -3.6167 -2.78815 -4.28477 -3.61669 93.1683 -15.4962 -105.864 49.0099 -5.20776 52.3132 -30.4919 -9.5661 -70.748 -23.5873 2.91956 -24.902 -85.2817 -30.2706 82.4454 -3.41931 4.02429 -51.3645 58.5687 -21.3861 -95.2792 23.412 -0.78132 -7.13842 30.8063 7.50894 -6.53681 -17.458 8.53814 9.76252 
38.3076 92.3929 -225.2 64.346 -83.818 64.8837 -170.034 -18.9009 95.6697 -48.7177 16.4209 2.61459 57.3738 -0.607548 3.76143 29.9462 4.2226 -7.31653 177.334 38.3888 95.8905 -27.7238 -17.4563 -0.238047 68.8553 -5.08012 -4.82779 14.8616 -0.961617 3.41052 -2.22185 7.81124 -91.126 11.2179 -4.94552 -1.75511 -0.444474 -5.01795 -1.53528 -23.0281 -4.18933 -3.16202 -3.01548 -4.18931 -3.16201 92.2505 -19.9621 -106.043 43.939 -2.40374 47.306 -33.3044 -12.4173 -71.7575 -27.863 3.56825 -25.3435 -85.7876 -34.6014 82.4129 -0.679483 11.0175 -49.18 61.9454 -20.6789 -92.031 21.2944 -0.380296 -5.77561 30.6801 7.2199 -5.90556 -17.9405 8.12375 8.56181 
38.1193 91.6522 -217.663 80.59 -84.7553 81.1096 -167.328 -14.5632 97.8392 -61.3632 15.427 2.55441 53.988 -2.56496 8.18267 35.8184 3.33951 -7.24809 176.147 37.8469 96.9335 -35.0536 -18.5931 0.462202 60.8934 -0.705798 -4.93652 13.7512 -1.9723 5.33489 -2.02995 7.91779 -91.0525 11.008 -4.52858 -1.66128 -0.655915 -4.5973 -1.46001 -23.2307 -3.8199 -2.94676 -3.21804 -3.8199 -2.94677 91.4627 -24.2403 -106.004 39.3511 1.58459 41.4858 -34.874 -15.2461 -72.989 -29.6614 3.39904 -23.7801 -86.6125 -39.2717 81.9113 0.481459 18.1646 -45.7204 62.4922 -19.4967 -89.4489 18.3684 -0.732508 -7.84347 29.0041 6.59484 -5.79613 -16.8597 7.52121 8.31558 
37.7444 90.3116 -210.382 95.7544 -85.1766 96.5864 -165.338 -8.61452 100.309 -74.2167 8.9748 3.26424 58.1743 -0.293888 6.6985 32.8795 3.56499 -6.93743 174.581 38.0241 98.4223 -47.2101 -19.675 1.55439 70.7448 -5.57469 -6.06471 0.223888 -2.15604 5.68427 -1.79954 7.95096 -91.0936 10.9409 -4.08863 -1.78835 -0.724584 -4.16336 -1.60645 -23.2875 -3.36221 -2.93516 -3.27486 -3.36221 -2.93516 90.4852 -26.9228 -106.987 36.0137 7.24626 35.4329 -34.1172 -16.6454 -73.4619 -32.025 3.54173 -22.8132 -87.1255 -45.5074 82.2538 1.13548 23.5144 -40.8604 64.9859 -17.4396 -86.9497 21.2699 0.223758 -2.86834 25.7589 6.88789 -2.33694 -13.5577 6.89972 5.69116 
37.0245 89.1466 -203.596 106.535 -85.4983 109.417 -164.445 -0.133648 103.347 -86.2621 4.64769 5.01014 61.4108 1.28091 5.75426 33.8375 4.17983 -8.31449 173.747 35.3827 101.567 -53.2876 -19.3894 2.35997 76.6802 -9.43042 -8.33113 7.56412 -3.55805 8.0301 -1.40138 8.02821 -91.3502 10.7801 -3.41343 -2.37099 -0.888218 -3.51445 -2.2184 -23.4285 -2.54339 -3.28702 -3.41585 -2.5434 -3.28703 90.5513 -29.8413 -105.727 34.447 10.9668 27.1734 -34.353 -17.1292 -74.6338 -31.4048 3.13884 -21.6434 -86.6828 -49.1388 83.5659 -2.88246 28.2499 -35.4154 61.8734 -13.8722 -85.0599 20.4609 -0.360886 -5.69403 23.6099 6.30837 0.00366979 -9.88195 5.76011 4.47498 
36.2346 88.0535 -197.125 116.091 -85.4626 122.765 -165.828 10.3986 107.066 -97.2392 4.354 7.22174 64.5783 2.6563 7.24033 32.2649 5.02964 -9.40001 173.134 30.8275 105.889 -55.6223 -18.6995 3.51338 82.6797 -13.1587 -9.2643 5.97237 -3.38731 7.68691 -0.967452 8.17267 -91.7788 10.4773 -2.743 -3.29074 -1.19464 -2.8851 -3.16694 -23.7062 -1.6281 -3.96212 -3.69357 -1.6281 -3.96212 90.25 -32.9217 -105.208 33.8068 12.8607 16.6374 -29.5155 -15.8983 -73.9366 -32.6083 2.94039 -19.5049 -86.7303 -51.7782 83.9132 -9.5148 29.7099 -26.2304 63.7239 -10.6086 -83.1517 16.0849 -0.598618 -7.43431 24.039 5.92862 2.32603 -8.72494 4.78404 1.94332 
35.9468 87.3316 -190.49 113.77 -85.773 122.092 -169.769 20.6002 107.122 -104.902 5.41611 8.33473 66.3234 3.59711 8.60929 30.8685 5.56059 -9.96229 173.35 26.3752 107.694 -56.68 -18.1618 4.13506 88.9171 -16.6225 -9.17567 5.38031 -4.61739 9.64154 -0.634681 8.18456 -91.9963 10.4532 -2.17952 -3.77422 -1.22107 -2.34341 -3.67481 -23.7162 -0.945631 -4.2539 -3.7035 -0.945629 -4.25389 89.9469 -33.6338 -105.539 34.1594 12.9775 5.95848 -28.4875 -14.8072 -75.6613 -31.4492 3.12174 -20.5168 -86.3332 -52.6291 84.6221 -18.2587 27.7021 -13.4861 66.8028 -9.69959 -83.184 15.8197 -0.89855 -9.41288 25.7933 5.45886 2.9478 -9.98481 4.06185 1.53297 
35.8482 86.7375 -183.655 111.952 -85.3332 118.427 -173.148 28.8621 103.421 -108.485 8.20251 8.73606 68.2223 4.80277 13.6061 30.7845 8.14505 -14.3954 173.56 21.2502 105.69 -57.8006 -19.2134 3.89731 95.0041 -19.8412 -8.71509 5.06122 -4.70957 9.76196 -0.442854 8.13311 -91.8382 10.5679 -1.72663 -3.49847 -1.10637 -1.87884 -3.41922 -23.6055 -0.59627 -3.85511 -3.59286 -0.596261 -3.85511 89.1829 -33.1027 -107.171 32.9176 12.1267 -1.89193 -28.9166 -13.9956 -78.1462 -29.9594 2.47294 -18.5383 -85.465 -53.8103 86.0456 -23.4696 25.7706 0.140282 68.7951 -12.7793 -84.2429 15.3065 -1.09606 -10.8292 25.4532 4.69088 3.80713 -9.21627 3.02814 1.6365 
35.7139 86.7178 -176.592 103.219 -85.7366 107.377 -176.338 36.944 100.078 -107.028 3.56057 8.26605 70.7327 5.83475 8.20667 30.8248 8.45901 -14.9511 174 15.322 103.142 -55.588 -20.8942 3.37538 99.1935 -22.4597 -9.14581 5.64676 -5.72422 11.4396 -0.0542048 7.88675 -91.4389 11.0815 -0.775377 -2.78888 -0.592132 -0.897326 -2.7521 -23.1031 0.0982436 -2.89291 -3.09045 0.0982377 -2.89292 88.0457 -34.825 -108.642 27.7775 8.44467 -6.62605 -30.078 -11.7649 -81.9846 -32.2827 2.65361 -18.1549 -83.3702 -53.9197 89.0861 -23.5494 27.9309 11.8546 69.1061 -17.5712 -84.8033 17.0406 -0.814702 -8.59652 24.1245 2.07884 1.46188 -8.31747 1.3319 2.84725 
35.628 87.5027 -169.083 92.7892 -87.4974 94.1529 -176.599 42.6207 96.2932 -101.315 1.70233 7.43281 73.0267 6.86514 7.52409 29.6315 8.3721 -14.3425 174.6 8.5887 99.8472 -51.5234 -20.9437 2.17541 101.208 -22.3924 -6.56864 5.59768 -6.08245 12.0122 0.695232 7.72263 -91.143 11.4293 0.849785 -2.36023 -0.24364 0.745122 -2.39532 -22.7673 1.51968 -1.99596 -2.75463 1.51968 -1.99596 89.8815 -30.2231 -106.912 26.2763 5.22007 -9.517 -31.4887 -8.73221 -85.8737 -29.4301 2.76497 -20.066 -83.0103 -53.5716 89.5745 -22.0683 31.5548 19.634 66.6365 -21.1424 -85.32 17.9591 -0.754503 -8.05362 24.2825 -0.00714121 4.228 -8.34084 -1.49746 0.171167 
35.3851 89.2424 -160.946 151.884 -89.2361 150.31 -176.259 44.1703 93.197 -91.9651 0.727023 6.17711 73.78 7.21289 7.53638 29.651 6.78896 -11.6828 174.803 -0.0538747 96.558 -46.179 -23.8393 0.377378 95.263 -19.688 -8.18268 11.3455 -5.84476 12.3496 1.5079 7.67058 -90.5422 11.5561 2.74593 -1.36488 -0.11282 2.6832 -1.48446 -22.6705 3.02911 -0.475876 -2.65788 3.02911 -0.475868 90.5323 -28.0756 -106.418 24.679 3.30875 -9.00916 -33.1051 -5.42594 -90.6205 -28.7772 2.9137 -21.157 -82.7358 -48.7197 89.5457 -23.4042 36.1097 27.8516 66.7509 -24.6564 -84.7527 18.4965 -0.732105 -7.85092 24.3606 -3.96461 1.53756 -9.20743 -4.37609 0.282494 
34.9527 91.1679 -152.328 -125.39 -88.4848 -129.554 -176.567 43.6515 91.1359 -80.1898 1.84812 4.64754 73.8354 7.44533 8.87743 29.1208 7.27296 -12.3217 174.247 -7.31616 93.5219 -40.0898 -25.0575 -1.5885 84.6166 -14.0268 -9.74167 21.0465 -6.34262 15.0887 2.23423 7.66151 -90.1057 11.5712 4.39525 -0.663586 -0.0925365 4.36177 -0.856756 -22.6868 4.39108 0.690666 -2.67415 4.39108 0.690669 90.8564 -23.7934 -107.512 24.3652 3.53076 -5.8812 -35.0825 -2.76155 -94.6675 -27.5573 2.83757 -21.8737 -82.9159 -46.7197 89.07 -21.1857 38.8639 33.4515 69.8498 -28.003 -83.9323 17.9429 -0.994019 -9.40952 25.0766 -6.63702 3.07128 -11.2277 -7.23121 -3.07329 
34.4118 93.0986 -143.488 -104.18 -87.106 -111.187 -177.377 41.3255 89.5548 -65.8729 0.676916 2.71068 73.1535 7.16538 7.34699 30.7453 5.87825 -10.475 172.949 -13.1918 89.778 -34.7392 -26.4103 -4.14135 71.9066 -6.26387 -6.56072 25.879 -5.52964 14.2412 2.87911 7.66019 -89.5493 11.5599 5.93862 0.286645 -0.0974496 5.94546 0.0240523 -22.732 5.57705 2.06375 -2.71939 5.57704 2.06376 91.6291 -20.0361 -107.472 24.7465 2.00961 -3.03367 -36.3615 -0.638899 -98.1828 -27.2451 2.52554 -20.7091 -83.1405 -42.6777 88.2724 -20.6193 40.5661 37.9385 70.8051 -30.1025 -83.5419 17.3507 -0.825282 -8.59903 26.8403 -9.40392 3.1588 -14.4953 -9.61113 -5.53931 
